<svg width="301" height="284" viewBox="0 0 301 284" fill="none" xmlns="http://www.w3.org/2000/svg">
<g filter="url(#filter0_f_504_244)">
<path fill-rule="evenodd" clip-rule="evenodd" d="M-2.97302 62.0372C62.9683 65.7444 128.742 82.666 175.274 129.564C221.656 176.311 240.628 242.052 240.993 307.923C241.362 374.21 226.09 443.472 177.267 488.276C129.915 531.731 61.2707 532.772 -2.97302 531.809C-65.8965 530.865 -134.802 528.845 -177.893 482.952C-220.233 437.859 -209.142 369.665 -213.188 307.923C-217.717 238.808 -247.44 160.962 -202.442 108.329C-156.317 54.3776 -73.8165 58.0543 -2.97302 62.0372Z" fill="url(#paint0_linear_504_244)"/>
</g>
<defs>
<filter id="filter0_f_504_244" x="-287" y="0" width="588" height="592" filterUnits="userSpaceOnUse" color-interpolation-filters="sRGB">
<feFlood flood-opacity="0" result="BackgroundImageFix"/>
<feBlend mode="normal" in="SourceGraphic" in2="BackgroundImageFix" result="shape"/>
<feGaussianBlur stdDeviation="30" result="effect1_foregroundBlur_504_244"/>
</filter>
<linearGradient id="paint0_linear_504_244" x1="-276.337" y1="36.8627" x2="337.15" y2="87.7061" gradientUnits="userSpaceOnUse">
<stop stop-color="#13F5B1" stop-opacity="0.55"/>
<stop offset="0.378941" stop-color="#E5E927" stop-opacity="0.91"/>
<stop offset="0.956011" stop-color="#DC03FF"/>
</linearGradient>
</defs>
</svg>
